# xmcd
#
# Track frame offsets: 
#        150
#        13000
#        27813
#        45743
#        60220
#        77891
#        93751
#        110124
#        126376
#        144183
#        160628
#        173686
#        191161
#        207882
#
# Disc length: 2987 seconds
#
# Revision: 0
# Processed by: cddbd v1.5.2PL0 Copyright (c) Steve Scherf et al.
# Submitted via: ExactAudioCopy v0.99pb4
#
DISCID=b00ba90e
DTITLE=ฝน  ธนสุนทร - ฝน  ซูเปอร์ฮิตลูกกรุง 2
DYEAR=2008
DGENRE=Country
TTITLE0=แอบรักเขา
TTITLE1=รักในซีเมเจอร์
TTITLE2=น้ำตาฝน
TTITLE3=ว้าเหว่
TTITLE4=หัวใจที่ถอดวาง
TTITLE5=จงรัก
TTITLE6=ลืมเสียเถิด
TTITLE7=รักต้องห้าม
TTITLE8=หยาดเพชร
TTITLE9=ดั่งนกเจ็บ
TTITLE10=ใจคนคอย
TTITLE11=ศัตรูหัวใจ
TTITLE12=พิษรัก
TTITLE13=รักที่เลือกไม่ได้
EXTD=
EXTT0=
EXTT1=
EXTT2=
EXTT3=
EXTT4=
EXTT5=
EXTT6=
EXTT7=
EXTT8=
EXTT9=
EXTT10=
EXTT11=
EXTT12=
EXTT13=
PLAYORDER=
